# xmcd
#
# Track frame offsets: 
#        150
#        21348
#        40073
#        55765
#        69846
#        81009
#        99565
#        113158
#        132054
#        144247
#        172880
#        188993
#        202761
#        223338
#        234599
#        258174
#        270350
#
# Disc length: 3863 seconds
#
# Revision: 0
# Processed by: cddbd v1.5.2PL0 Copyright (c) Steve Scherf et al.
# Submitted via: ExactAudioCopyFreeDBPlugin 1.0
#
DISCID=df0f1511
DTITLE=Lord Bishop Rocks - 15 Years Of Loud CD 2
DYEAR=2014
DGENRE=Blues
TTITLE0=Harlem
TTITLE1=Facist Raw
TTITLE2=Symtoms Of The Stone
TTITLE3=War Stop The War
TTITLE4=Monster
TTITLE5=Honey Groove
TTITLE6=Chemicals In My Mind
TTITLE7=Certificate Of Peace
TTITLE8=Smoke In Meltdown
TTITLE9=Confunkshow
TTITLE10=I Am Of Love
TTITLE11=Freedom
TTITLE12=What Your Doing To Me
TTITLE13=Moonlight Seranade
TTITLE14=Hey Joe
TTITLE15=Who Burned America
TTITLE16=Rain Song
EXTD=
EXTT0=
EXTT1=
EXTT2=
EXTT3=
EXTT4=
EXTT5=
EXTT6=
EXTT7=
EXTT8=
EXTT9=
EXTT10=
EXTT11=
EXTT12=
EXTT13=
EXTT14=
EXTT15=
EXTT16=
PLAYORDER=
